<?xml version="1.0" encoding="utf-8"?>
<!-- Generator: Adobe Illustrator 26.5.0, SVG Export Plug-In . SVG Version: 6.00 Build 0)  -->
<svg version="1.1" id="Calque_1" xmlns="http://www.w3.org/2000/svg" xmlns:xlink="http://www.w3.org/1999/xlink" x="0px" y="0px"
	 viewBox="0 0 1386 757" style="enable-background:new 0 0 1386 757;" xml:space="preserve">
<style type="text/css">
	.st0{fill:#00203F;}
	.st1{fill:#FDD20E;}
	.st2{fill:#9CC3D5;}
	.st3{fill:none;stroke:#00203F;stroke-width:2;stroke-miterlimit:10;}
	.st4{fill:none;stroke:#00203F;stroke-width:1.8012;stroke-miterlimit:10;}
</style>
<path class="st0" d="M1385,893.2l-598.7,120.3l-40,8L-1,1171.3v-1.1c103-22.9,1265-253.2,1386-278"/>
<path class="st0" d="M1385,902.2l-598.7,120.3l-40,8L-1,1180.3v-1.1c103-22.9,1265-253.2,1386-278"/>
<rect x="-100.9" y="126.4" class="st1" width="77.6" height="74.6"/>
<rect x="-96.8" y="229.6" class="st2" width="76.6" height="86.8"/>
<path class="st1" d="M-0.3,470.9c0,0,86.2,113.8,205.9-163.4S702,356.1,708,0.8H0.5L-0.3,470.9z"/>
<path class="st2" d="M1388.1,137c0,0-341.6,45-185.9,238.3c61.3,76.1-20.4,374.5,185.9,270.3V137z"/>
<path class="st3" d="M-36,502c3-3,204,101,178-127s105-242,239-260s301,50,227-131"/>
<path class="st4" d="M1446,659.7c0,0-146,92.5-120-97.3s-118-318.8,93-273.3"/>
</svg>
